# xmcd
#
# Track frame offsets: 
#        150
#        17177
#        33084
#        49373
#        66807
#        80963
#        97502
#        114549
#        131185
#        150472
#        162978
#        195165
#
# Disc length: 3233 seconds
#
# Revision: 4
# Processed by: cddbd v1.5.1PL0 Copyright (c) Steve Scherf et al.
# Submitted via: ExactAudioCopy v0.95a5
#
DISCID=940c9f0c
DTITLE=Ty Herndon - Big Hopes
DYEAR=1998
DGENRE=Country
TTITLE0=Big Hopes
TTITLE1=It Must Be Love
TTITLE2=A Man Holding On (To A Woman Lettin' Go)
TTITLE3=Big Time Dreamer
TTITLE4=Thinkin' With My Heart Again
TTITLE5=Somewhere A Lover
TTITLE6=Hands Of A Working Man
TTITLE7=How Much Can One Man Love You
TTITLE8=The Only Way I Know
TTITLE9=No Brakes
TTITLE10=Tears In God's Eyes
TTITLE11=Windows Multimedia Track
EXTD=
EXTT0=
EXTT1=
EXTT2=
EXTT3=
EXTT4=
EXTT5=
EXTT6=
EXTT7=
EXTT8=
EXTT9=
EXTT10=
EXTT11=
PLAYORDER=
